<svg width="40" height="40" xmlns="http://www.w3.org/2000/svg">
 <!-- Created with Method Draw - http://github.com/duopixel/Method-Draw/ -->
 <g>
  <title>background</title>
  <rect fill="#ffffff" id="canvas_background" height="42" width="42" y="-1" x="-1"/>
  <g display="none" overflow="visible" y="0" x="0" height="100%" width="100%" id="canvasGrid">
   <rect fill="url(#gridpattern)" stroke-width="0" y="0" x="0" height="100%" width="100%"/>
  </g>
 </g>
 <g>
  <title>Layer 1</title>
  <rect stroke="#008282" fill-opacity="0" id="svg_27" height="36" width="36" y="1.86126" x="1.92307" stroke-width="1.5" fill="#004400"/>
  <path id="svg_24" d="m28.46417,29.22063l2.07139,-1.12233l2.07031,-1.12279l-2.0714,-1.12358l-2.07029,-1.12272l0,1.2486c-0.50745,0 -1.09712,0 -1.29468,0c-0.94188,0.02493 -2.10441,-0.67168 -3.3412,-1.56969c-0.46105,-0.31487 -0.9262,-0.66128 -1.41918,-0.97407c0.49299,-0.31318 0.95747,-0.65919 1.41918,-0.97404c1.23678,-0.89677 2.39931,-1.59464 3.33998,-1.56926l1.29589,-0.00042l0,1.25027l2.07029,-1.12317l2.0714,-1.12403l-2.0714,-1.12523l-2.07029,-1.12359l0,1.24947l-1.29522,0c-1.92378,0.02531 -3.36152,1.09908 -4.61963,1.97177c-1.24894,0.92088 -2.37158,1.61414 -3.02267,1.56928l-3.7142,0l0,1.99464l3.71542,0c0.65053,-0.0453 1.77374,0.64841 3.02256,1.56926c1.25756,0.87313 2.69475,1.94601 4.61908,1.97178l1.29468,0l0,1.24986l0,0l0,0z" stroke-width="1.5" stroke="#004400" fill="#cccccc"/>
  <path transform="rotate(90 10.31984519958496,28.70200347900391) " id="svg_23" d="m4.12421,31.77265l8.48802,0l0,-6.14128l-1.30108,0l2.60216,-3.07065l2.60217,3.07065l-1.30109,0l0,9.21192l-11.09018,0l0,-3.07064z" stroke-width="1.5" stroke="#000049" fill="#cccccc"/>
  <path transform="rotate(90 10.31984519958496,19.8684253692627) " id="svg_22" d="m4.12421,22.93907l8.48802,0l0,-6.14128l-1.30108,0l2.60216,-3.07065l2.60217,3.07065l-1.30109,0l0,9.21192l-11.09018,0l0,-3.07064z" stroke-width="1.5" stroke="#000049" fill="#cccccc"/>
  <path transform="rotate(90 10.319845199584961,10.75953006744385) " id="svg_21" d="m4.12421,13.83017l8.48802,0l0,-6.14129l-1.30108,0l2.60217,-3.07064l2.60217,3.07064l-1.30108,0l0,9.21193l-11.09018,0l0,-3.07064z" stroke-width="1.5" stroke="#000049" fill="#cccccc"/>
 </g>
</svg>